<mxfile host="65bd71144e">
    <diagram id="kJVpObAU40Jcvv1V5IwP" name="Page-1">
        <mxGraphModel dx="2637" dy="1178" grid="1" gridSize="10" guides="1" tooltips="1" connect="1" arrows="1" fold="1" page="1" pageScale="1" pageWidth="850" pageHeight="1100" math="0" shadow="0">
            <root>
                <mxCell id="0"/>
                <mxCell id="1" parent="0"/>
                <mxCell id="225" style="edgeStyle=none;html=1;exitX=1;exitY=0.5;exitDx=0;exitDy=0;entryX=0;entryY=0.5;entryDx=0;entryDy=0;movable=1;resizable=1;rotatable=1;deletable=1;editable=1;locked=0;connectable=1;" parent="1" source="229" target="233" edge="1">
                    <mxGeometry relative="1" as="geometry"/>
                </mxCell>
                <mxCell id="226" style="edgeStyle=none;html=1;exitX=1;exitY=0.5;exitDx=0;exitDy=0;entryX=0;entryY=0.5;entryDx=0;entryDy=0;movable=1;resizable=1;rotatable=1;deletable=1;editable=1;locked=0;connectable=1;" parent="1" source="229" target="231" edge="1">
                    <mxGeometry relative="1" as="geometry"/>
                </mxCell>
                <mxCell id="227" style="edgeStyle=none;html=1;exitX=0.5;exitY=0;exitDx=0;exitDy=0;entryX=0;entryY=0.5;entryDx=0;entryDy=0;movable=1;resizable=1;rotatable=1;deletable=1;editable=1;locked=0;connectable=1;" parent="1" source="229" target="242" edge="1">
                    <mxGeometry relative="1" as="geometry">
                        <Array as="points">
                            <mxPoint x="-530" y="240"/>
                        </Array>
                    </mxGeometry>
                </mxCell>
                <mxCell id="229" value="Script" style="ellipse;whiteSpace=wrap;html=1;movable=1;resizable=1;rotatable=1;deletable=1;editable=1;locked=0;connectable=1;" parent="1" vertex="1">
                    <mxGeometry x="-590" y="320" width="120" height="80" as="geometry"/>
                </mxCell>
                <mxCell id="230" style="edgeStyle=none;html=1;exitX=1;exitY=0.5;exitDx=0;exitDy=0;entryX=0;entryY=0.5;entryDx=0;entryDy=0;movable=1;resizable=1;rotatable=1;deletable=1;editable=1;locked=0;connectable=1;" parent="1" source="231" target="238" edge="1">
                    <mxGeometry relative="1" as="geometry"/>
                </mxCell>
                <mxCell id="311" style="edgeStyle=none;html=1;exitX=0.5;exitY=1;exitDx=0;exitDy=0;entryX=0.5;entryY=1;entryDx=0;entryDy=0;" parent="1" source="231" target="240" edge="1">
                    <mxGeometry relative="1" as="geometry">
                        <Array as="points">
                            <mxPoint x="-340" y="520"/>
                            <mxPoint x="220" y="520"/>
                        </Array>
                    </mxGeometry>
                </mxCell>
                <mxCell id="231" value="Clips" style="ellipse;whiteSpace=wrap;html=1;movable=1;resizable=1;rotatable=1;deletable=1;editable=1;locked=0;connectable=1;" parent="1" vertex="1">
                    <mxGeometry x="-400" y="400" width="120" height="80" as="geometry"/>
                </mxCell>
                <mxCell id="232" style="edgeStyle=none;html=1;exitX=1;exitY=0.5;exitDx=0;exitDy=0;entryX=0;entryY=0.5;entryDx=0;entryDy=0;movable=1;resizable=1;rotatable=1;deletable=1;editable=1;locked=0;connectable=1;" parent="1" source="233" target="236" edge="1">
                    <mxGeometry relative="1" as="geometry"/>
                </mxCell>
                <mxCell id="233" value="Audio" style="ellipse;whiteSpace=wrap;html=1;movable=1;resizable=1;rotatable=1;deletable=1;editable=1;locked=0;connectable=1;" parent="1" vertex="1">
                    <mxGeometry x="-360" y="280" width="120" height="80" as="geometry"/>
                </mxCell>
                <mxCell id="312" style="edgeStyle=none;html=1;exitX=1;exitY=0.5;exitDx=0;exitDy=0;entryX=0;entryY=0.5;entryDx=0;entryDy=0;" parent="1" source="236" target="240" edge="1">
                    <mxGeometry relative="1" as="geometry"/>
                </mxCell>
                <mxCell id="236" value="Combine" style="ellipse;whiteSpace=wrap;html=1;movable=1;resizable=1;rotatable=1;deletable=1;editable=1;locked=0;connectable=1;" parent="1" vertex="1">
                    <mxGeometry x="-40" y="280" width="120" height="80" as="geometry"/>
                </mxCell>
                <mxCell id="316" style="edgeStyle=none;html=1;exitX=1;exitY=0.5;exitDx=0;exitDy=0;entryX=0;entryY=1;entryDx=0;entryDy=0;" parent="1" source="238" target="236" edge="1">
                    <mxGeometry relative="1" as="geometry"/>
                </mxCell>
                <mxCell id="238" value="Video" style="ellipse;whiteSpace=wrap;html=1;movable=1;resizable=1;rotatable=1;deletable=1;editable=1;locked=0;connectable=1;" parent="1" vertex="1">
                    <mxGeometry x="-240" y="400" width="120" height="80" as="geometry"/>
                </mxCell>
                <mxCell id="239" style="edgeStyle=none;html=1;exitX=1;exitY=0.5;exitDx=0;exitDy=0;entryX=0;entryY=0.5;entryDx=0;entryDy=0;movable=1;resizable=1;rotatable=1;deletable=1;editable=1;locked=0;connectable=1;" parent="1" source="240" target="248" edge="1">
                    <mxGeometry relative="1" as="geometry"/>
                </mxCell>
                <mxCell id="240" value="Upload" style="ellipse;whiteSpace=wrap;html=1;movable=1;resizable=1;rotatable=1;deletable=1;editable=1;locked=0;connectable=1;" parent="1" vertex="1">
                    <mxGeometry x="160" y="280" width="120" height="80" as="geometry"/>
                </mxCell>
                <mxCell id="322" style="edgeStyle=none;html=1;exitX=1;exitY=0.5;exitDx=0;exitDy=0;entryX=0;entryY=0;entryDx=0;entryDy=0;" parent="1" source="242" target="236" edge="1">
                    <mxGeometry relative="1" as="geometry"/>
                </mxCell>
                <mxCell id="242" value="Image" style="ellipse;whiteSpace=wrap;html=1;movable=1;resizable=1;rotatable=1;deletable=1;editable=1;locked=0;connectable=1;" parent="1" vertex="1">
                    <mxGeometry x="-200" y="200" width="120" height="80" as="geometry"/>
                </mxCell>
                <mxCell id="245" value="&lt;font style=&quot;font-size: 30px;&quot;&gt;Layout&lt;/font&gt;" style="text;html=1;align=center;verticalAlign=middle;whiteSpace=wrap;rounded=0;movable=1;resizable=1;rotatable=1;deletable=1;editable=1;locked=0;connectable=1;" parent="1" vertex="1">
                    <mxGeometry x="-310" y="170" width="60" height="30" as="geometry"/>
                </mxCell>
                <mxCell id="248" value="Sheets" style="ellipse;whiteSpace=wrap;html=1;movable=1;resizable=1;rotatable=1;deletable=1;editable=1;locked=0;connectable=1;" parent="1" vertex="1">
                    <mxGeometry x="360" y="280" width="120" height="80" as="geometry"/>
                </mxCell>
                <mxCell id="249" value="Assets" style="childLayout=tableLayout;recursiveResize=0;shadow=1;fillStyle=dots;" parent="1" vertex="1">
                    <mxGeometry x="-800" y="640" width="640" height="392" as="geometry"/>
                </mxCell>
                <mxCell id="250" style="shape=tableRow;horizontal=0;startSize=0;swimlaneHead=0;swimlaneBody=0;top=0;left=0;bottom=0;right=0;dropTarget=0;collapsible=0;recursiveResize=0;expand=0;fontStyle=0;strokeColor=inherit;fillColor=#ffffff;" parent="249" vertex="1">
                    <mxGeometry width="640" height="42" as="geometry"/>
                </mxCell>
                <mxCell id="251" value="Layout Node" style="connectable=0;recursiveResize=0;strokeColor=inherit;fillColor=#A7C942;align=center;fontStyle=1;fontColor=#FFFFFF;html=1;" parent="250" vertex="1">
                    <mxGeometry width="160" height="42" as="geometry">
                        <mxRectangle width="160" height="42" as="alternateBounds"/>
                    </mxGeometry>
                </mxCell>
                <mxCell id="252" value="Application" style="connectable=0;recursiveResize=0;strokeColor=inherit;fillColor=#A7C942;align=center;fontStyle=1;fontColor=#FFFFFF;html=1;" parent="250" vertex="1">
                    <mxGeometry x="160" width="162" height="42" as="geometry">
                        <mxRectangle width="162" height="42" as="alternateBounds"/>
                    </mxGeometry>
                </mxCell>
                <mxCell id="253" value="Usage" style="connectable=0;recursiveResize=0;strokeColor=inherit;fillColor=#A7C942;align=center;fontStyle=1;fontColor=#FFFFFF;html=1;" parent="250" vertex="1">
                    <mxGeometry x="322" width="159" height="42" as="geometry">
                        <mxRectangle width="159" height="42" as="alternateBounds"/>
                    </mxGeometry>
                </mxCell>
                <mxCell id="254" value="Cost per Month" style="connectable=0;recursiveResize=0;strokeColor=inherit;fillColor=#A7C942;align=center;fontStyle=1;fontColor=#FFFFFF;html=1;" parent="250" vertex="1">
                    <mxGeometry x="481" width="159" height="42" as="geometry">
                        <mxRectangle width="159" height="42" as="alternateBounds"/>
                    </mxGeometry>
                </mxCell>
                <mxCell id="255" value="" style="shape=tableRow;horizontal=0;startSize=0;swimlaneHead=0;swimlaneBody=0;top=0;left=0;bottom=0;right=0;dropTarget=0;collapsible=0;recursiveResize=0;expand=0;fontStyle=0;strokeColor=inherit;fillColor=#ffffff;" parent="249" vertex="1">
                    <mxGeometry y="42" width="640" height="40" as="geometry"/>
                </mxCell>
                <mxCell id="256" value="Description" style="connectable=0;recursiveResize=0;strokeColor=inherit;fillColor=inherit;align=center;whiteSpace=wrap;html=1;" parent="255" vertex="1">
                    <mxGeometry width="160" height="40" as="geometry">
                        <mxRectangle width="160" height="40" as="alternateBounds"/>
                    </mxGeometry>
                </mxCell>
                <mxCell id="257" value="Manual" style="connectable=0;recursiveResize=0;strokeColor=inherit;fillColor=inherit;align=center;whiteSpace=wrap;html=1;" parent="255" vertex="1">
                    <mxGeometry x="160" width="162" height="40" as="geometry">
                        <mxRectangle width="162" height="40" as="alternateBounds"/>
                    </mxGeometry>
                </mxCell>
                <mxCell id="258" value="Instructions" style="connectable=0;recursiveResize=0;strokeColor=inherit;fillColor=inherit;align=center;whiteSpace=wrap;html=1;" parent="255" vertex="1">
                    <mxGeometry x="322" width="159" height="40" as="geometry">
                        <mxRectangle width="159" height="40" as="alternateBounds"/>
                    </mxGeometry>
                </mxCell>
                <mxCell id="259" value="-" style="connectable=0;recursiveResize=0;strokeColor=inherit;fillColor=inherit;align=center;whiteSpace=wrap;html=1;" parent="255" vertex="1">
                    <mxGeometry x="481" width="159" height="40" as="geometry">
                        <mxRectangle width="159" height="40" as="alternateBounds"/>
                    </mxGeometry>
                </mxCell>
                <mxCell id="260" value="" style="shape=tableRow;horizontal=0;startSize=0;swimlaneHead=0;swimlaneBody=0;top=0;left=0;bottom=0;right=0;dropTarget=0;collapsible=0;recursiveResize=0;expand=0;fontStyle=0;strokeColor=inherit;fillColor=#ffffff;" parent="249" vertex="1">
                    <mxGeometry y="82" width="640" height="40" as="geometry"/>
                </mxCell>
                <mxCell id="261" value="Script" style="connectable=0;recursiveResize=0;strokeColor=inherit;fillColor=inherit;align=center;whiteSpace=wrap;html=1;" parent="260" vertex="1">
                    <mxGeometry width="160" height="40" as="geometry">
                        <mxRectangle width="160" height="40" as="alternateBounds"/>
                    </mxGeometry>
                </mxCell>
                <mxCell id="262" value="Python" style="connectable=0;recursiveResize=0;strokeColor=inherit;fillColor=inherit;align=center;whiteSpace=wrap;html=1;" parent="260" vertex="1">
                    <mxGeometry x="160" width="162" height="40" as="geometry">
                        <mxRectangle width="162" height="40" as="alternateBounds"/>
                    </mxGeometry>
                </mxCell>
                <mxCell id="263" value="Middleware" style="connectable=0;recursiveResize=0;strokeColor=inherit;fillColor=inherit;align=center;whiteSpace=wrap;html=1;" parent="260" vertex="1">
                    <mxGeometry x="322" width="159" height="40" as="geometry">
                        <mxRectangle width="159" height="40" as="alternateBounds"/>
                    </mxGeometry>
                </mxCell>
                <mxCell id="264" value="-" style="connectable=0;recursiveResize=0;strokeColor=inherit;fillColor=inherit;align=center;whiteSpace=wrap;html=1;" parent="260" vertex="1">
                    <mxGeometry x="481" width="159" height="40" as="geometry">
                        <mxRectangle width="159" height="40" as="alternateBounds"/>
                    </mxGeometry>
                </mxCell>
                <mxCell id="265" value="" style="shape=tableRow;horizontal=0;startSize=0;swimlaneHead=0;swimlaneBody=0;top=0;left=0;bottom=0;right=0;dropTarget=0;collapsible=0;recursiveResize=0;expand=0;fontStyle=1;strokeColor=inherit;fillColor=#EAF2D3;" parent="249" vertex="1">
                    <mxGeometry y="122" width="640" height="38" as="geometry"/>
                </mxCell>
                <mxCell id="266" value="Clips" style="connectable=0;recursiveResize=0;whiteSpace=wrap;html=1;" parent="265" vertex="1">
                    <mxGeometry width="160" height="38" as="geometry">
                        <mxRectangle width="160" height="38" as="alternateBounds"/>
                    </mxGeometry>
                </mxCell>
                <mxCell id="267" value="Vizard" style="connectable=0;recursiveResize=0;whiteSpace=wrap;html=1;" parent="265" vertex="1">
                    <mxGeometry x="160" width="162" height="38" as="geometry">
                        <mxRectangle width="162" height="38" as="alternateBounds"/>
                    </mxGeometry>
                </mxCell>
                <mxCell id="268" value="Clips GEN" style="connectable=0;recursiveResize=0;whiteSpace=wrap;html=1;" parent="265" vertex="1">
                    <mxGeometry x="322" width="159" height="38" as="geometry">
                        <mxRectangle width="159" height="38" as="alternateBounds"/>
                    </mxGeometry>
                </mxCell>
                <mxCell id="269" value="1300" style="connectable=0;recursiveResize=0;whiteSpace=wrap;html=1;" parent="265" vertex="1">
                    <mxGeometry x="481" width="159" height="38" as="geometry">
                        <mxRectangle width="159" height="38" as="alternateBounds"/>
                    </mxGeometry>
                </mxCell>
                <mxCell id="270" value="" style="shape=tableRow;horizontal=0;startSize=0;swimlaneHead=0;swimlaneBody=0;top=0;left=0;bottom=0;right=0;dropTarget=0;collapsible=0;recursiveResize=0;expand=0;fontStyle=0;strokeColor=inherit;fillColor=#ffffff;" parent="249" vertex="1">
                    <mxGeometry y="160" width="640" height="42" as="geometry"/>
                </mxCell>
                <mxCell id="271" value="Video" style="connectable=0;recursiveResize=0;strokeColor=inherit;fillColor=inherit;fontStyle=0;align=center;whiteSpace=wrap;html=1;" parent="270" vertex="1">
                    <mxGeometry width="160" height="42" as="geometry">
                        <mxRectangle width="160" height="42" as="alternateBounds"/>
                    </mxGeometry>
                </mxCell>
                <mxCell id="272" value="ffmpeg" style="connectable=0;recursiveResize=0;strokeColor=inherit;fillColor=inherit;fontStyle=0;align=center;whiteSpace=wrap;html=1;" parent="270" vertex="1">
                    <mxGeometry x="160" width="162" height="42" as="geometry">
                        <mxRectangle width="162" height="42" as="alternateBounds"/>
                    </mxGeometry>
                </mxCell>
                <mxCell id="273" value="Combine" style="connectable=0;recursiveResize=0;strokeColor=inherit;fillColor=inherit;fontStyle=0;align=center;whiteSpace=wrap;html=1;" parent="270" vertex="1">
                    <mxGeometry x="322" width="159" height="42" as="geometry">
                        <mxRectangle width="159" height="42" as="alternateBounds"/>
                    </mxGeometry>
                </mxCell>
                <mxCell id="274" value="-" style="connectable=0;recursiveResize=0;strokeColor=inherit;fillColor=inherit;fontStyle=0;align=center;whiteSpace=wrap;html=1;" parent="270" vertex="1">
                    <mxGeometry x="481" width="159" height="42" as="geometry">
                        <mxRectangle width="159" height="42" as="alternateBounds"/>
                    </mxGeometry>
                </mxCell>
                <mxCell id="323" style="shape=tableRow;horizontal=0;startSize=0;swimlaneHead=0;swimlaneBody=0;top=0;left=0;bottom=0;right=0;dropTarget=0;collapsible=0;recursiveResize=0;expand=0;fontStyle=1;strokeColor=inherit;fillColor=#EAF2D3;" vertex="1" parent="249">
                    <mxGeometry y="202" width="640" height="38" as="geometry"/>
                </mxCell>
                <mxCell id="324" value="Audio" style="connectable=0;recursiveResize=0;whiteSpace=wrap;html=1;" vertex="1" parent="323">
                    <mxGeometry width="160" height="38" as="geometry">
                        <mxRectangle width="160" height="38" as="alternateBounds"/>
                    </mxGeometry>
                </mxCell>
                <mxCell id="325" value="Store" style="connectable=0;recursiveResize=0;whiteSpace=wrap;html=1;" vertex="1" parent="323">
                    <mxGeometry x="160" width="162" height="38" as="geometry">
                        <mxRectangle width="162" height="38" as="alternateBounds"/>
                    </mxGeometry>
                </mxCell>
                <mxCell id="326" value="Music" style="connectable=0;recursiveResize=0;whiteSpace=wrap;html=1;" vertex="1" parent="323">
                    <mxGeometry x="322" width="159" height="38" as="geometry">
                        <mxRectangle width="159" height="38" as="alternateBounds"/>
                    </mxGeometry>
                </mxCell>
                <mxCell id="327" value="-" style="connectable=0;recursiveResize=0;whiteSpace=wrap;html=1;" vertex="1" parent="323">
                    <mxGeometry x="481" width="159" height="38" as="geometry">
                        <mxRectangle width="159" height="38" as="alternateBounds"/>
                    </mxGeometry>
                </mxCell>
                <mxCell id="280" value="" style="shape=tableRow;horizontal=0;startSize=0;swimlaneHead=0;swimlaneBody=0;top=0;left=0;bottom=0;right=0;dropTarget=0;collapsible=0;recursiveResize=0;expand=0;fontStyle=1;strokeColor=inherit;fillColor=#EAF2D3;" parent="249" vertex="1">
                    <mxGeometry y="240" width="640" height="38" as="geometry"/>
                </mxCell>
                <mxCell id="281" value="Combine" style="connectable=0;recursiveResize=0;whiteSpace=wrap;html=1;" parent="280" vertex="1">
                    <mxGeometry width="160" height="38" as="geometry">
                        <mxRectangle width="160" height="38" as="alternateBounds"/>
                    </mxGeometry>
                </mxCell>
                <mxCell id="282" value="ffmpeg" style="connectable=0;recursiveResize=0;whiteSpace=wrap;html=1;" parent="280" vertex="1">
                    <mxGeometry x="160" width="162" height="38" as="geometry">
                        <mxRectangle width="162" height="38" as="alternateBounds"/>
                    </mxGeometry>
                </mxCell>
                <mxCell id="283" value="Audio &amp;amp; Video" style="connectable=0;recursiveResize=0;whiteSpace=wrap;html=1;" parent="280" vertex="1">
                    <mxGeometry x="322" width="159" height="38" as="geometry">
                        <mxRectangle width="159" height="38" as="alternateBounds"/>
                    </mxGeometry>
                </mxCell>
                <mxCell id="284" value="-" style="connectable=0;recursiveResize=0;whiteSpace=wrap;html=1;" parent="280" vertex="1">
                    <mxGeometry x="481" width="159" height="38" as="geometry">
                        <mxRectangle width="159" height="38" as="alternateBounds"/>
                    </mxGeometry>
                </mxCell>
                <mxCell id="285" value="" style="shape=tableRow;horizontal=0;startSize=0;swimlaneHead=0;swimlaneBody=0;top=0;left=0;bottom=0;right=0;dropTarget=0;collapsible=0;recursiveResize=0;expand=0;fontStyle=1;strokeColor=inherit;fillColor=#EAF2D3;" parent="249" vertex="1">
                    <mxGeometry y="278" width="640" height="38" as="geometry"/>
                </mxCell>
                <mxCell id="286" value="Image" style="connectable=0;recursiveResize=0;whiteSpace=wrap;html=1;" parent="285" vertex="1">
                    <mxGeometry width="160" height="38" as="geometry">
                        <mxRectangle width="160" height="38" as="alternateBounds"/>
                    </mxGeometry>
                </mxCell>
                <mxCell id="287" value="Manual" style="connectable=0;recursiveResize=0;whiteSpace=wrap;html=1;" parent="285" vertex="1">
                    <mxGeometry x="160" width="162" height="38" as="geometry">
                        <mxRectangle width="162" height="38" as="alternateBounds"/>
                    </mxGeometry>
                </mxCell>
                <mxCell id="288" value="Thumbnail GEN" style="connectable=0;recursiveResize=0;whiteSpace=wrap;html=1;" parent="285" vertex="1">
                    <mxGeometry x="322" width="159" height="38" as="geometry">
                        <mxRectangle width="159" height="38" as="alternateBounds"/>
                    </mxGeometry>
                </mxCell>
                <mxCell id="289" value="-" style="connectable=0;recursiveResize=0;whiteSpace=wrap;html=1;" parent="285" vertex="1">
                    <mxGeometry x="481" width="159" height="38" as="geometry">
                        <mxRectangle width="159" height="38" as="alternateBounds"/>
                    </mxGeometry>
                </mxCell>
                <mxCell id="300" value="" style="shape=tableRow;horizontal=0;startSize=0;swimlaneHead=0;swimlaneBody=0;top=0;left=0;bottom=0;right=0;dropTarget=0;collapsible=0;recursiveResize=0;expand=0;fontStyle=1;strokeColor=inherit;fillColor=#EAF2D3;" parent="249" vertex="1">
                    <mxGeometry y="316" width="640" height="38" as="geometry"/>
                </mxCell>
                <mxCell id="301" value="Upload" style="connectable=0;recursiveResize=0;whiteSpace=wrap;html=1;" parent="300" vertex="1">
                    <mxGeometry width="160" height="38" as="geometry">
                        <mxRectangle width="160" height="38" as="alternateBounds"/>
                    </mxGeometry>
                </mxCell>
                <mxCell id="302" value="Python" style="connectable=0;recursiveResize=0;whiteSpace=wrap;html=1;" parent="300" vertex="1">
                    <mxGeometry x="160" width="162" height="38" as="geometry">
                        <mxRectangle width="162" height="38" as="alternateBounds"/>
                    </mxGeometry>
                </mxCell>
                <mxCell id="303" value="Youtube &amp;amp; Instagram" style="connectable=0;recursiveResize=0;whiteSpace=wrap;html=1;" parent="300" vertex="1">
                    <mxGeometry x="322" width="159" height="38" as="geometry">
                        <mxRectangle width="159" height="38" as="alternateBounds"/>
                    </mxGeometry>
                </mxCell>
                <mxCell id="304" value="-" style="connectable=0;recursiveResize=0;whiteSpace=wrap;html=1;" parent="300" vertex="1">
                    <mxGeometry x="481" width="159" height="38" as="geometry">
                        <mxRectangle width="159" height="38" as="alternateBounds"/>
                    </mxGeometry>
                </mxCell>
                <mxCell id="305" value="" style="shape=tableRow;horizontal=0;startSize=0;swimlaneHead=0;swimlaneBody=0;top=0;left=0;bottom=0;right=0;dropTarget=0;collapsible=0;recursiveResize=0;expand=0;fontStyle=1;strokeColor=inherit;fillColor=#EAF2D3;" parent="249" vertex="1">
                    <mxGeometry y="354" width="640" height="38" as="geometry"/>
                </mxCell>
                <mxCell id="306" value="Sheets" style="connectable=0;recursiveResize=0;whiteSpace=wrap;html=1;" parent="305" vertex="1">
                    <mxGeometry width="160" height="38" as="geometry">
                        <mxRectangle width="160" height="38" as="alternateBounds"/>
                    </mxGeometry>
                </mxCell>
                <mxCell id="307" value="Google Sheets" style="connectable=0;recursiveResize=0;whiteSpace=wrap;html=1;" parent="305" vertex="1">
                    <mxGeometry x="160" width="162" height="38" as="geometry">
                        <mxRectangle width="162" height="38" as="alternateBounds"/>
                    </mxGeometry>
                </mxCell>
                <mxCell id="308" value="Store data" style="connectable=0;recursiveResize=0;whiteSpace=wrap;html=1;" parent="305" vertex="1">
                    <mxGeometry x="322" width="159" height="38" as="geometry">
                        <mxRectangle width="159" height="38" as="alternateBounds"/>
                    </mxGeometry>
                </mxCell>
                <mxCell id="309" value="-" style="connectable=0;recursiveResize=0;whiteSpace=wrap;html=1;" parent="305" vertex="1">
                    <mxGeometry x="481" width="159" height="38" as="geometry">
                        <mxRectangle width="159" height="38" as="alternateBounds"/>
                    </mxGeometry>
                </mxCell>
                <mxCell id="319" style="edgeStyle=none;html=1;exitX=1;exitY=0.5;exitDx=0;exitDy=0;entryX=0;entryY=0.5;entryDx=0;entryDy=0;" parent="1" source="318" target="229" edge="1">
                    <mxGeometry relative="1" as="geometry"/>
                </mxCell>
                <mxCell id="318" value="Description" style="ellipse;whiteSpace=wrap;html=1;" parent="1" vertex="1">
                    <mxGeometry x="-800" y="320" width="120" height="80" as="geometry"/>
                </mxCell>
                <mxCell id="328" value="Project File Structure" style="swimlane;startSize=40;horizontal=1;containerType=tree;fontSize=15;movable=1;resizable=1;rotatable=1;deletable=1;editable=1;locked=0;connectable=1;" vertex="1" parent="1">
                    <mxGeometry y="640" width="600" height="320" as="geometry">
                        <mxRectangle x="200" y="40" width="150" height="40" as="alternateBounds"/>
                    </mxGeometry>
                </mxCell>
                <mxCell id="329" value="Keys" style="whiteSpace=wrap;html=1;treeFolding=1;treeMoving=1;newEdgeStyle={&quot;edgeStyle&quot;:&quot;elbowEdgeStyle&quot;,&quot;startArrow&quot;:&quot;none&quot;,&quot;endArrow&quot;:&quot;none&quot;};movable=1;resizable=1;rotatable=1;deletable=1;editable=1;locked=0;connectable=1;" vertex="1" parent="328">
                    <mxGeometry y="40" width="120" height="40" as="geometry"/>
                </mxCell>
                <mxCell id="330" value="" style="edgeStyle=elbowEdgeStyle;html=1;elbow=vertical;startArrow=none;endArrow=none;movable=1;resizable=1;rotatable=1;deletable=1;editable=1;locked=0;connectable=1;" edge="1" parent="328">
                    <mxGeometry relative="1" as="geometry">
                        <mxPoint x="60" y="80" as="sourcePoint"/>
                        <mxPoint x="60" y="120" as="targetPoint"/>
                    </mxGeometry>
                </mxCell>
                <mxCell id="331" value="Utilities" style="whiteSpace=wrap;html=1;treeFolding=1;treeMoving=1;newEdgeStyle={&quot;edgeStyle&quot;:&quot;elbowEdgeStyle&quot;,&quot;startArrow&quot;:&quot;none&quot;,&quot;endArrow&quot;:&quot;none&quot;};movable=1;resizable=1;rotatable=1;deletable=1;editable=1;locked=0;connectable=1;" vertex="1" parent="328">
                    <mxGeometry y="120" width="120" height="40" as="geometry"/>
                </mxCell>
                <mxCell id="332" value="" style="edgeStyle=elbowEdgeStyle;html=1;elbow=vertical;startArrow=none;endArrow=none;movable=1;resizable=1;rotatable=1;deletable=1;editable=1;locked=0;connectable=1;" edge="1" parent="328">
                    <mxGeometry relative="1" as="geometry">
                        <mxPoint x="60" y="160" as="sourcePoint"/>
                        <mxPoint x="60" y="200" as="targetPoint"/>
                    </mxGeometry>
                </mxCell>
                <mxCell id="333" value="Output" style="whiteSpace=wrap;html=1;treeFolding=1;treeMoving=1;newEdgeStyle={&quot;edgeStyle&quot;:&quot;elbowEdgeStyle&quot;,&quot;startArrow&quot;:&quot;none&quot;,&quot;endArrow&quot;:&quot;none&quot;};movable=1;resizable=1;rotatable=1;deletable=1;editable=1;locked=0;connectable=1;" vertex="1" parent="328">
                    <mxGeometry y="200" width="120" height="40" as="geometry"/>
                </mxCell>
                <mxCell id="334" value="" style="edgeStyle=elbowEdgeStyle;html=1;elbow=vertical;startArrow=none;endArrow=none;movable=1;resizable=1;rotatable=1;deletable=1;editable=1;locked=0;connectable=1;" edge="1" parent="328">
                    <mxGeometry relative="1" as="geometry">
                        <mxPoint x="60" y="240" as="sourcePoint"/>
                        <mxPoint x="60" y="280" as="targetPoint"/>
                    </mxGeometry>
                </mxCell>
                <mxCell id="335" value="Main" style="whiteSpace=wrap;html=1;treeFolding=1;treeMoving=1;newEdgeStyle={&quot;edgeStyle&quot;:&quot;elbowEdgeStyle&quot;,&quot;startArrow&quot;:&quot;none&quot;,&quot;endArrow&quot;:&quot;none&quot;};movable=1;resizable=1;rotatable=1;deletable=1;editable=1;locked=0;connectable=1;" vertex="1" parent="328">
                    <mxGeometry y="280" width="120" height="40" as="geometry"/>
                </mxCell>
                <mxCell id="336" value="" style="edgeStyle=elbowEdgeStyle;html=1;elbow=horizontal;startArrow=none;endArrow=none;movable=1;resizable=1;rotatable=1;deletable=1;editable=1;locked=0;connectable=1;" edge="1" parent="328">
                    <mxGeometry relative="1" as="geometry">
                        <mxPoint x="120" y="60" as="sourcePoint"/>
                        <mxPoint x="160" y="60" as="targetPoint"/>
                    </mxGeometry>
                </mxCell>
                <mxCell id="337" value="client secret" style="whiteSpace=wrap;html=1;treeFolding=1;treeMoving=1;newEdgeStyle={&quot;edgeStyle&quot;:&quot;elbowEdgeStyle&quot;,&quot;startArrow&quot;:&quot;none&quot;,&quot;endArrow&quot;:&quot;none&quot;};movable=1;resizable=1;rotatable=1;deletable=1;editable=1;locked=0;connectable=1;" vertex="1" parent="328">
                    <mxGeometry x="160" y="40" width="120" height="40" as="geometry"/>
                </mxCell>
                <mxCell id="338" value="" style="edgeStyle=elbowEdgeStyle;html=1;elbow=horizontal;startArrow=none;endArrow=none;movable=1;resizable=1;rotatable=1;deletable=1;editable=1;locked=0;connectable=1;" edge="1" parent="328">
                    <mxGeometry relative="1" as="geometry">
                        <mxPoint x="280" y="60" as="sourcePoint"/>
                        <mxPoint x="320" y="60" as="targetPoint"/>
                    </mxGeometry>
                </mxCell>
                <mxCell id="339" value="api" style="whiteSpace=wrap;html=1;treeFolding=1;treeMoving=1;newEdgeStyle={&quot;edgeStyle&quot;:&quot;elbowEdgeStyle&quot;,&quot;startArrow&quot;:&quot;none&quot;,&quot;endArrow&quot;:&quot;none&quot;};movable=1;resizable=1;rotatable=1;deletable=1;editable=1;locked=0;connectable=1;" vertex="1" parent="328">
                    <mxGeometry x="320" y="40" width="120" height="40" as="geometry"/>
                </mxCell>
                <mxCell id="340" value="" style="edgeStyle=elbowEdgeStyle;html=1;elbow=horizontal;startArrow=none;endArrow=none;movable=1;resizable=1;rotatable=1;deletable=1;editable=1;locked=0;connectable=1;" edge="1" parent="328">
                    <mxGeometry relative="1" as="geometry">
                        <mxPoint x="440" y="60" as="sourcePoint"/>
                        <mxPoint x="480" y="60" as="targetPoint"/>
                    </mxGeometry>
                </mxCell>
                <mxCell id="341" value="basic data" style="whiteSpace=wrap;html=1;treeFolding=1;treeMoving=1;newEdgeStyle={&quot;edgeStyle&quot;:&quot;elbowEdgeStyle&quot;,&quot;startArrow&quot;:&quot;none&quot;,&quot;endArrow&quot;:&quot;none&quot;};movable=1;resizable=1;rotatable=1;deletable=1;editable=1;locked=0;connectable=1;" vertex="1" parent="328">
                    <mxGeometry x="480" y="40" width="120" height="40" as="geometry"/>
                </mxCell>
                <mxCell id="342" value="" style="edgeStyle=elbowEdgeStyle;html=1;elbow=vertical;startArrow=none;endArrow=none;exitX=1;exitY=0.5;exitDx=0;exitDy=0;movable=1;resizable=1;rotatable=1;deletable=1;editable=1;locked=0;connectable=1;" edge="1" parent="328" target="343">
                    <mxGeometry relative="1" as="geometry">
                        <mxPoint x="120" y="140" as="sourcePoint"/>
                    </mxGeometry>
                </mxCell>
                <mxCell id="343" value="Youtube" style="whiteSpace=wrap;html=1;treeFolding=1;treeMoving=1;newEdgeStyle={&quot;edgeStyle&quot;:&quot;elbowEdgeStyle&quot;,&quot;startArrow&quot;:&quot;none&quot;,&quot;endArrow&quot;:&quot;none&quot;};movable=1;resizable=1;rotatable=1;deletable=1;editable=1;locked=0;connectable=1;" vertex="1" parent="328">
                    <mxGeometry x="160" y="120" width="120" height="40" as="geometry"/>
                </mxCell>
                <mxCell id="344" value="" style="edgeStyle=elbowEdgeStyle;html=1;elbow=vertical;startArrow=none;endArrow=none;exitX=1;exitY=0.5;exitDx=0;exitDy=0;movable=1;resizable=1;rotatable=1;deletable=1;editable=1;locked=0;connectable=1;" edge="1" parent="328" source="343" target="345">
                    <mxGeometry relative="1" as="geometry">
                        <mxPoint x="360" y="340" as="sourcePoint"/>
                    </mxGeometry>
                </mxCell>
                <mxCell id="345" value="Open API" style="whiteSpace=wrap;html=1;treeFolding=1;treeMoving=1;newEdgeStyle={&quot;edgeStyle&quot;:&quot;elbowEdgeStyle&quot;,&quot;startArrow&quot;:&quot;none&quot;,&quot;endArrow&quot;:&quot;none&quot;};movable=1;resizable=1;rotatable=1;deletable=1;editable=1;locked=0;connectable=1;" vertex="1" parent="328">
                    <mxGeometry x="320" y="120" width="120" height="40" as="geometry"/>
                </mxCell>
                <mxCell id="346" value="" style="edgeStyle=elbowEdgeStyle;html=1;elbow=vertical;startArrow=none;endArrow=none;exitX=1;exitY=0.5;exitDx=0;exitDy=0;movable=1;resizable=1;rotatable=1;deletable=1;editable=1;locked=0;connectable=1;" edge="1" parent="328" source="345">
                    <mxGeometry relative="1" as="geometry">
                        <mxPoint x="520" y="340" as="sourcePoint"/>
                        <mxPoint x="480" y="139.85714285714278" as="targetPoint"/>
                    </mxGeometry>
                </mxCell>
                <mxCell id="347" value="Runware" style="whiteSpace=wrap;html=1;treeFolding=1;treeMoving=1;newEdgeStyle={&quot;edgeStyle&quot;:&quot;elbowEdgeStyle&quot;,&quot;startArrow&quot;:&quot;none&quot;,&quot;endArrow&quot;:&quot;none&quot;};movable=1;resizable=1;rotatable=1;deletable=1;editable=1;locked=0;connectable=1;" vertex="1" parent="328">
                    <mxGeometry x="480" y="120" width="120" height="40" as="geometry"/>
                </mxCell>
                <mxCell id="348" value="" style="edgeStyle=elbowEdgeStyle;html=1;elbow=vertical;startArrow=none;endArrow=none;exitX=1;exitY=0.5;exitDx=0;exitDy=0;movable=1;resizable=1;rotatable=1;deletable=1;editable=1;locked=0;connectable=1;" edge="1" parent="328" target="349">
                    <mxGeometry relative="1" as="geometry">
                        <mxPoint x="120" y="220" as="sourcePoint"/>
                    </mxGeometry>
                </mxCell>
                <mxCell id="349" value="Files" style="whiteSpace=wrap;html=1;treeFolding=1;treeMoving=1;newEdgeStyle={&quot;edgeStyle&quot;:&quot;elbowEdgeStyle&quot;,&quot;startArrow&quot;:&quot;none&quot;,&quot;endArrow&quot;:&quot;none&quot;};movable=1;resizable=1;rotatable=1;deletable=1;editable=1;locked=0;connectable=1;" vertex="1" parent="328">
                    <mxGeometry x="160" y="200" width="120" height="40" as="geometry"/>
                </mxCell>
                <mxCell id="350" value="" style="edgeStyle=elbowEdgeStyle;html=1;elbow=vertical;startArrow=none;endArrow=none;exitX=1;exitY=0.5;exitDx=0;exitDy=0;movable=1;resizable=1;rotatable=1;deletable=1;editable=1;locked=0;connectable=1;" edge="1" parent="328" source="349" target="351">
                    <mxGeometry relative="1" as="geometry">
                        <mxPoint x="360" y="420" as="sourcePoint"/>
                    </mxGeometry>
                </mxCell>
                <mxCell id="351" value="Sheets" style="whiteSpace=wrap;html=1;treeFolding=1;treeMoving=1;newEdgeStyle={&quot;edgeStyle&quot;:&quot;elbowEdgeStyle&quot;,&quot;startArrow&quot;:&quot;none&quot;,&quot;endArrow&quot;:&quot;none&quot;};movable=1;resizable=1;rotatable=1;deletable=1;editable=1;locked=0;connectable=1;" vertex="1" parent="328">
                    <mxGeometry x="320" y="200" width="120" height="40" as="geometry"/>
                </mxCell>
                <mxCell id="352" value="" style="edgeStyle=elbowEdgeStyle;html=1;elbow=vertical;startArrow=none;endArrow=none;exitX=1;exitY=0.5;exitDx=0;exitDy=0;movable=1;resizable=1;rotatable=1;deletable=1;editable=1;locked=0;connectable=1;" edge="1" parent="328" target="353">
                    <mxGeometry relative="1" as="geometry">
                        <mxPoint x="120" y="300" as="sourcePoint"/>
                    </mxGeometry>
                </mxCell>
                <mxCell id="353" value="Scripts" style="whiteSpace=wrap;html=1;treeFolding=1;treeMoving=1;newEdgeStyle={&quot;edgeStyle&quot;:&quot;elbowEdgeStyle&quot;,&quot;startArrow&quot;:&quot;none&quot;,&quot;endArrow&quot;:&quot;none&quot;};movable=1;resizable=1;rotatable=1;deletable=1;editable=1;locked=0;connectable=1;" vertex="1" parent="328">
                    <mxGeometry x="160" y="280" width="120" height="40" as="geometry"/>
                </mxCell>
            </root>
        </mxGraphModel>
    </diagram>
</mxfile>